# xmcd
#
# Track frame offsets: 
#        150
#        13620
#        29580
#        46997
#        60640
#        71887
#        84810
#        103692
#        116782
#        136040
#        150382
#        164012
#        176962
#
# Disc length: 2604 seconds
#
# Revision: 2
# Processed by: cddbd v1.5.1PL2 Copyright (c) Steve Scherf et al.
# Submitted via: ExactAudioCopy v0.95b4
#
DISCID=ad0a2a0d
DTITLE=Petula Clark - The best of
DYEAR=1994
DGENRE=Country
TTITLE0=It's a Sign Of The Times
TTITLE1=This is My Song
TTITLE2=Downtown
TTITLE3=I Couldn't Live Without Your Love
TTITLE4=You're the One
TTITLE5=I Know a Place
TTITLE6=Kiss Me Goodbye
TTITLE7=Colour My World
TTITLE8=Mad About You
TTITLE9=Don't Sleep tn the Subway Darling
TTITLE10=The Other Man's Grass
TTITLE11=My Love
TTITLE12=Give it a Try
EXTD=CLEO\nMasters Music\nCLCD00315
EXTT0=
EXTT1=
EXTT2=
EXTT3=
EXTT4=
EXTT5=
EXTT6=
EXTT7=
EXTT8=
EXTT9=
EXTT10=
EXTT11=
EXTT12=
PLAYORDER=
